<?xml version="1.0" standalone="no"?><svg xmlns="http://www.w3.org/2000/svg" viewBox="0 0 1440 320"><path fill="#cbffd5" fill-opacity="0.44" d="M0,224L30,192C60,160,120,96,180,74.7C240,53,300,75,360,101.3C420,128,480,160,540,165.3C600,171,660,149,720,128C780,107,840,85,900,90.7C960,96,1020,128,1080,160C1140,192,1200,224,1260,218.7C1320,213,1380,171,1410,149.3L1440,128L1440,0L1410,0C1380,0,1320,0,1260,0C1200,0,1140,0,1080,0C1020,0,960,0,900,0C840,0,780,0,720,0C660,0,600,0,540,0C480,0,420,0,360,0C300,0,240,0,180,0C120,0,60,0,30,0L0,0Z"></path></svg>